<svg xmlns="http://www.w3.org/2000/svg" viewBox="0 0 24 24" width="24" height="24">
  <path fill="currentColor" d="M12 1.27a11 11 0 00-3.48 21.46c.55.09.73-.24.73-.53v-1.85c-3.03.66-3.67-1.45-3.67-1.45-.5-1.27-1.21-1.6-1.21-1.6-.99-.68.07-.66.07-.66 1.1.08 1.67 1.13 1.67 1.13.97 1.66 2.54 1.18 3.16.9.1-.7.38-1.18.69-1.45-2.42-.28-4.96-1.21-4.96-5.38 0-1.19.42-2.16 1.13-2.92-.11-.28-.49-1.4.11-2.91 0 0 .92-.3 3.02 1.13a10.5 10.5 0 015.52 0c2.1-1.43 3.02-1.13 3.02-1.13.6 1.51.22 2.63.11 2.91.7.76 1.13 1.73 1.13 2.92 0 4.18-2.55 5.1-4.98 5.37.39.34.74 1.01.74 2.03v3.01c0 .29.19.63.74.53A11 11 0 0012 1.27"/>
</svg> 